<?xml version="1.0" standalone="no"?>
<!DOCTYPE svg PUBLIC "-//W3C//DTD SVG 20010904//EN"
 "http://www.w3.org/TR/2001/REC-SVG-20010904/DTD/svg10.dtd">
<svg version="1.0" xmlns="http://www.w3.org/2000/svg"
 width="1322.000000pt" height="444.000000pt" viewBox="0 0 1322.000000 444.000000"
 preserveAspectRatio="xMidYMid meet">

<g transform="translate(0.000000,444.000000) scale(0.100000,-0.100000)"
fill="#000000" stroke="none">
<path d="M2129 4427 c-20 -8 -52 -23 -70 -35 -19 -12 -478 -466 -1020 -1009
-1088 -1090 -1031 -1027 -1032 -1158 -1 -117 15 -141 251 -377 l206 -208 -13
-77 c-7 -43 -15 -89 -18 -103 -3 -17 216 196 666 645 518 517 674 667 681 655
5 -8 20 -48 34 -90 52 -157 56 -281 13 -374 -16 -34 -145 -171 -506 -537
l-484 -490 26 -27 25 -27 -20 -104 -19 -105 140 -140 141 -141 58 58 c32 31
62 57 68 57 6 0 21 -11 33 -24 l23 -25 -19 -105 -20 -105 144 -143 143 -143
63 63 62 62 180 -180 c210 -211 242 -232 355 -232 56 0 82 6 123 26 42 20 243
217 1049 1023 1103 1104 1042 1036 1041 1168 -1 131 56 68 -1036 1162 -721
722 -1004 999 -1041 1019 -60 33 -169 43 -227 21z"/>
<path d="M5090 2569 c0 -38 2 -69 5 -69 3 0 23 17 45 39 45 43 98 61 184 61
l56 0 0 -355 0 -355 -32 -20 -33 -20 145 0 c130 1 143 2 126 15 -11 8 -23 15
-28 15 -4 0 -8 162 -8 360 l0 360 68 0 c97 0 135 -14 176 -63 l36 -42 0 72 0
73 -32 -8 c-42 -9 -620 -9 -670 0 l-38 7 0 -70z"/>
<path d="M8855 2630 c-16 -4 -149 -9 -295 -10 -146 -1 -256 -5 -245 -7 45 -11
45 -7 45 -379 l0 -354 -25 -10 c-14 -5 -25 -12 -25 -15 0 -3 133 -5 295 -5
l295 0 30 66 c16 37 30 69 30 71 0 3 -22 -15 -50 -40 -62 -56 -104 -67 -260
-67 l-120 0 2 168 3 167 121 0 c128 0 149 -6 157 -48 2 -12 4 19 4 68 1 50 -1
81 -4 70 -9 -39 -31 -45 -160 -45 l-123 0 0 170 0 170 103 0 c128 0 168 -11
223 -62 l44 -41 0 72 c0 39 -3 70 -7 70 -5 -1 -21 -5 -38 -9z"/>
<path d="M11650 2566 l0 -58 38 34 c54 49 114 70 187 66 l60 -3 3 -353 c1
-232 -1 -360 -8 -372 -10 -19 -7 -20 90 -20 l100 0 -15 23 c-13 21 -15 73 -13
373 l3 349 75 3 c50 2 88 -2 111 -12 35 -15 89 -61 89 -77 0 -5 5 -9 10 -9 6
0 10 26 10 58 l0 57 -370 0 -370 0 0 -59z"/>
<path d="M6239 2258 c-138 -321 -159 -366 -189 -385 l-33 -23 84 0 84 0 -32
20 c-37 22 -38 13 18 140 l38 85 136 5 c76 3 140 3 144 0 9 -6 91 -196 91
-210 0 -6 -4 -10 -8 -10 -5 0 -17 -7 -28 -15 -17 -13 -4 -14 121 -15 l140 0
-28 23 c-20 16 -61 101 -162 337 -183 428 -175 410 -199 410 -18 0 -43 -51
-177 -362z m177 20 c30 -67 54 -129 54 -135 0 -10 -31 -13 -120 -13 -66 0
-120 3 -120 8 0 22 116 279 124 272 4 -5 33 -64 62 -132z"/>
<path d="M7164 2610 c16 -5 33 -15 37 -22 5 -7 9 -164 9 -349 0 -351 0 -353
-45 -377 -15 -9 15 -11 125 -11 134 0 143 1 118 15 l-28 15 0 353 c0 372 0
368 45 379 11 2 -50 5 -135 5 -103 0 -145 -3 -126 -8z"/>
<path d="M7738 2609 c17 -5 32 -14 32 -19 0 -5 -74 -92 -165 -194 -91 -101
-165 -189 -165 -195 0 -19 240 -275 280 -299 43 -26 167 -54 219 -50 l36 3
-32 19 c-26 16 -199 208 -350 386 l-23 27 141 156 c102 114 148 159 172 166
25 7 8 9 -73 9 -82 0 -98 -2 -72 -9z"/>
<path d="M9289 2610 c18 -4 37 -14 42 -22 5 -7 9 -167 9 -355 l0 -341 -27 -21
-28 -20 139 -1 139 0 -27 21 -26 20 0 155 0 154 23 0 c13 0 44 -13 69 -29 36
-23 58 -50 102 -125 65 -110 92 -139 160 -171 55 -27 165 -42 191 -27 15 8 14
10 -11 16 -49 12 -92 53 -135 129 -74 126 -91 148 -148 180 l-54 30 49 22
c154 68 173 263 35 360 l-43 30 -246 2 c-148 1 -233 -2 -213 -7z m316 -29 c75
-34 125 -121 111 -193 -15 -78 -86 -147 -161 -156 l-45 -5 0 187 0 186 28 0
c15 0 45 -9 67 -19z"/>
<path d="M11058 2604 l22 -15 0 -353 c0 -260 -3 -355 -12 -364 -9 -9 11 -12
92 -12 81 0 101 3 92 12 -9 9 -12 103 -12 362 0 311 2 351 17 368 15 17 12 18
-103 18 -110 0 -117 -1 -96 -16z"/>
</g>
</svg>
